<mxfile host="65bd71144e">
    <diagram name="Page-1" id="3EJAN17fcuRD-BUnmHwJ">
        <mxGraphModel dx="823" dy="472" grid="1" gridSize="10" guides="1" tooltips="1" connect="1" arrows="1" fold="1" page="1" pageScale="1" pageWidth="850" pageHeight="1100" math="0" shadow="0">
            <root>
                <mxCell id="0"/>
                <mxCell id="1" parent="0"/>
                <mxCell id="3rPVQYz4sKvQcb1Xm26E-7" style="rounded=0;orthogonalLoop=1;jettySize=auto;html=1;exitX=1;exitY=0.75;exitDx=0;exitDy=0;entryX=0;entryY=0.313;entryDx=0;entryDy=0;entryPerimeter=0;" parent="1" source="3rPVQYz4sKvQcb1Xm26E-1" target="3rPVQYz4sKvQcb1Xm26E-3" edge="1">
                    <mxGeometry relative="1" as="geometry"/>
                </mxCell>
                <mxCell id="3rPVQYz4sKvQcb1Xm26E-1" value="React Kullanıcı &lt;br&gt;Arayüzü" style="shape=parallelogram;perimeter=parallelogramPerimeter;whiteSpace=wrap;html=1;fixedSize=1;" parent="1" vertex="1">
                    <mxGeometry x="150" y="130" width="130" height="70" as="geometry"/>
                </mxCell>
                <mxCell id="3rPVQYz4sKvQcb1Xm26E-9" style="rounded=0;orthogonalLoop=1;jettySize=auto;html=1;exitX=1;exitY=0.25;exitDx=0;exitDy=0;entryX=0.033;entryY=0.775;entryDx=0;entryDy=0;entryPerimeter=0;" parent="1" source="3rPVQYz4sKvQcb1Xm26E-2" target="3rPVQYz4sKvQcb1Xm26E-3" edge="1">
                    <mxGeometry relative="1" as="geometry"/>
                </mxCell>
                <mxCell id="3rPVQYz4sKvQcb1Xm26E-2" value="React Personel Arayüzü" style="shape=parallelogram;perimeter=parallelogramPerimeter;whiteSpace=wrap;html=1;fixedSize=1;" parent="1" vertex="1">
                    <mxGeometry x="150" y="280" width="130" height="70" as="geometry"/>
                </mxCell>
                <mxCell id="3rPVQYz4sKvQcb1Xm26E-8" style="rounded=0;orthogonalLoop=1;jettySize=auto;html=1;exitX=0;exitY=0;exitDx=0;exitDy=0;entryX=1;entryY=0.25;entryDx=0;entryDy=0;" parent="1" source="3rPVQYz4sKvQcb1Xm26E-3" target="3rPVQYz4sKvQcb1Xm26E-1" edge="1">
                    <mxGeometry relative="1" as="geometry"/>
                </mxCell>
                <mxCell id="3rPVQYz4sKvQcb1Xm26E-10" style="rounded=0;orthogonalLoop=1;jettySize=auto;html=1;exitX=0;exitY=1;exitDx=0;exitDy=0;entryX=1;entryY=0.5;entryDx=0;entryDy=0;" parent="1" source="3rPVQYz4sKvQcb1Xm26E-3" target="3rPVQYz4sKvQcb1Xm26E-2" edge="1">
                    <mxGeometry relative="1" as="geometry"/>
                </mxCell>
                <mxCell id="2" style="edgeStyle=none;html=1;exitX=1;exitY=0.5;exitDx=0;exitDy=0;entryX=0;entryY=0.5;entryDx=0;entryDy=0;" edge="1" parent="1" source="3rPVQYz4sKvQcb1Xm26E-3" target="3rPVQYz4sKvQcb1Xm26E-5">
                    <mxGeometry relative="1" as="geometry"/>
                </mxCell>
                <mxCell id="3rPVQYz4sKvQcb1Xm26E-3" value="Express.js" style="ellipse;whiteSpace=wrap;html=1;" parent="1" vertex="1">
                    <mxGeometry x="350" y="200" width="120" height="80" as="geometry"/>
                </mxCell>
                <mxCell id="3rPVQYz4sKvQcb1Xm26E-5" value="MongoDB&lt;br&gt;Veritabanı" style="shape=hexagon;perimeter=hexagonPerimeter2;whiteSpace=wrap;html=1;fixedSize=1;" parent="1" vertex="1">
                    <mxGeometry x="550" y="200" width="120" height="80" as="geometry"/>
                </mxCell>
            </root>
        </mxGraphModel>
    </diagram>
</mxfile>